:version 1.10
:name ASF
:units
  mass 1
  length 1
  angle deg
:documentation
  ASF file generated by Kaydara
:root
  axis xyz
  order  tx ty tz rx ry rz
  position 0 0 0
  orientation 0 0 0
:bonedata
  begin
    id 1
    name RightUpLegDummy
    direction -0.65628 -0.754516 0.00165102
    length 4.76918
    axis 0 0 0 xyz
  end
  begin
    id 2
    name RightUpLeg
    direction -0.145584 -0.923362 0.355256
    length 17.9961
    axis -24.7611 -13.1006 1.78531 xyz
    dof rx ry rz
  end
  begin
    id 3
    name RightLeg
    direction 0.263379 0.172355 -0.949171
    length 13.3386
    axis 89.6202 -21.1929 12.3855 xyz
    dof rx ry rz
  end
  begin
    id 4
    name RightFoot
    direction 0.224283 -0.968777 -0.105675
    length 5.86697
    axis 56.995 -39.6905 17.3365 xyz
    dof rx ry rz
  end
  begin
    id 5
    name RightToes
    direction -0.0806345 -0.9037 0.420506
    length 4.75197
    axis 146.825 -39.7828 17.6019 xyz
    dof rx ry rz
  end
  begin
    id 6
    name SpineDummy
    direction -3.39852e-014 1 9.33296e-014
    length 8.13779
    axis 0 0 0 xyz
  end
  begin
    id 7
    name Spine
    direction -0.156609 0.733703 0.661176
    length 7.14978
    axis 41.2365 5.68757 17.0844 xyz
    dof rx ry rz
  end
  begin
    id 8
    name Spine1
    direction 0 0 0
    length 0
    axis 42.8809 47.8308 -3.36039 xyz
    dof rx ry rz
  end
  begin
    id 9
    name HEadDummy
    direction 0.546431 0.701947 0.456819
    length 3.55512
    axis 42.8809 47.8308 -3.36039 xyz
  end
  begin
    id 10
    name HEad
    direction 0.23444 0.828559 0.508457
    length 7.35827
    axis 51.1864 49.2662 27.4903 xyz
    dof rx ry rz
  end
  begin
    id 11
    name LeftShoulder1Dummy
    direction 0.431183 0.475873 -0.766568
    length 2.49352
    axis 42.8809 47.8308 -3.36039 xyz
  end
  begin
    id 12
    name LeftShoulder1
    direction 0.268187 -0.383402 -0.883786
    length 4.48604
    axis -119.517 0.106469 35.1736 xyz
    dof rx ry rz
  end
  begin
    id 13
    name LeftArm
    direction 0.380567 -0.703221 -0.600541
    length 10.1142
    axis -5.41825 36.2925 7.8293 xyz
    dof rx ry rz
  end
  begin
    id 14
    name LeftForeArm
    direction 0.541071 -0.732356 -0.413396
    length 9.39839
    axis 4.65387 33.7604 7.81644 xyz
    dof rx ry rz
  end
  begin
    id 15
    name LeftHand
    direction 0.847511 -0.389379 -0.360707
    length 3.66142
    axis 7.65593 21.1436 -24.6758 xyz
    dof rx ry rz
  end
  begin
    id 16
    name RightShoulderDummy
    direction -0.692546 0.541855 0.476208
    length 2.49352
    axis 42.8809 47.8308 -3.36039 xyz
  end
  begin
    id 17
    name RightShoulder
    direction -0.870808 -0.316653 0.376065
    length 4.48602
    axis 141.571 51.133 -100.254 xyz
    dof rx ry rz
  end
  begin
    id 18
    name RightArm
    direction 0.366897 -0.87275 0.322015
    length 10.1142
    axis 92.3258 71.2036 138.917 xyz
    dof rx ry rz
  end
  begin
    id 19
    name RightForeArm
    direction 0.702487 -0.694568 0.155197
    length 9.39835
    axis 153.863 41.5092 -176.604 xyz
    dof rx ry rz
  end
  begin
    id 20
    name RightHand
    direction 0.79502 -0.601276 0.0800636
    length 3.66142
    axis 154.247 4.59222 142.9 xyz
    dof rx ry rz
  end
  begin
    id 21
    name LeftUpLegDummy
    direction 0.65628 -0.754516 0.00165102
    length 4.76919
    axis 0 0 0 xyz
  end
  begin
    id 22
    name LeftUpLeg
    direction -0.1277 -0.689368 0.713067
    length 17.9961
    axis -48.3385 -17.8675 0.791927 xyz
    dof rx ry rz
  end
  begin
    id 23
    name LeftLeg
    direction 0.109849 -0.991246 -0.0732378
    length 13.3386
    axis -2.05791 -7.30784 1.72042 xyz
    dof rx ry rz
  end
  begin
    id 24
    name LeftFoot
    direction 0.0448355 -0.272614 0.961078
    length 5.86697
    axis -18.7733 -7.89606 10.2113 xyz
    dof rx ry rz
  end
  begin
    id 25
    name LeftToes
    direction -0.18506 0.293668 0.937823
    length 4.75197
    axis 71.2267 -7.89606 10.2113 xyz
    dof rx ry rz
  end
:hierarchy
  begin
    root RightUpLegDummy SpineDummy LeftUpLegDummy
    RightUpLegDummy RightUpLeg
    RightUpLeg RightLeg
    RightLeg RightFoot
    RightFoot RightToes
    SpineDummy Spine
    Spine Spine1
    Spine1 HEadDummy LeftShoulder1Dummy RightShoulderDummy
    HEadDummy HEad
    LeftShoulder1Dummy LeftShoulder1
    LeftShoulder1 LeftArm
    LeftArm LeftForeArm
    LeftForeArm LeftHand
    RightShoulderDummy RightShoulder
    RightShoulder RightArm
    RightArm RightForeArm
    RightForeArm RightHand
    LeftUpLegDummy LeftUpLeg
    LeftUpLeg LeftLeg
    LeftLeg LeftFoot
    LeftFoot LeftToes
  end

:SAMPLES-PER-SECOND 30
:FULLY-SPECIFIED
:DEGREES
170
root  -2.49463 29.4059 0.582995 -157.805 2.26013 170.552
RightUpLeg  -62.9581 10.6856 -26.1308
RightLeg  -81.0337 -13.3596 1.05984
RightFoot  36.1638 -10.0654 -1.33794
RightToes  -1.27222e-014 -6.36111e-015 6.36111e-015
Spine  -0.951047 -15.1612 -6.21308
Spine1  -14.4833 -10.7238 68.0693
HEad  7.11826 4.35248 -34.7124
LeftShoulder1  6.36111e-015 -1.33558e-015 6.49777e-015
LeftArm  34.3358 -10.457 34.4361
LeftForeArm  7.93728 -4.78178 -2.38862
LeftHand  1.9745 6.50029 -3.76752
RightShoulder  -4.77083e-015 -6.36111e-015 -3.18055e-015
RightArm  76.8318 -2.52576 -75.8219
RightForeArm  1.53705 -13.644 3.40511
RightHand  0.862755 1.44325 -9.38274
LeftUpLeg  25.3838 -4.12552 30.5336
LeftLeg  -0.621462 -22.0217 -2.5774
LeftFoot  -32.5703 0.253144 -40.2423
LeftToes  9.54166e-015 -1.91609e-011 -2.3878e-011
171
root  -1.52675 29.861 0.230236 -150.597 -2.43605 172.256
RightUpLeg  -65.9269 11.4223 -27.0717
RightLeg  -81.6571 -13.9017 3.07477
RightFoot  35.3243 -9.49866 -1.62827
RightToes  -1.27222e-014 -6.36111e-015 6.36111e-015
Spine  0.0432381 -12.2734 -1.65299
Spine1  -15.5444 -10.4103 59.0337
HEad  0.136979 -0.970447 -36.6944
LeftShoulder1  6.36111e-015 -1.33558e-015 6.49777e-015
LeftArm  23.3207 -7.89721 21.8962
LeftForeArm  8.39437 -1.07802 -2.76298
LeftHand  1.44342 5.48483 -5.05355
RightShoulder  -4.77083e-015 -6.36111e-015 -3.18055e-015
RightArm  63.3921 -6.60102 -64.725
RightForeArm  5.07482 -9.96524 6.5117
RightHand  1.23683 0.467658 -10.3249
LeftUpLeg  18.4063 -3.34813 36.8593
LeftLeg  -10.534 -27.4273 0.376704
LeftFoot  -23.4852 3.86834 -43.5781
LeftToes  9.54166e-015 -1.91609e-011 -2.3878e-011
172
root  0.0211522 30.493 -0.632994 -142.76 -9.89067 173.222
RightUpLeg  -69.1825 9.48983 -25.9535
RightLeg  -79.1295 -15.2738 5.75187
RightFoot  35.1685 -8.34294 -2.85491
RightToes  -1.27222e-014 -6.36111e-015 6.36111e-015
Spine  0.0613451 -10.8695 3.49278
Spine1  -17.1584 -11.8961 48.3473
HEad  -5.71763 -7.58964 -36.2054
LeftShoulder1  6.36111e-015 -1.33558e-015 6.49777e-015
LeftArm  6.67419 -11.7726 12.4768
LeftForeArm  10.3309 0.870613 -3.84826
LeftHand  0.92428 4.5871 -6.7602
RightShoulder  -4.77083e-015 -6.36111e-015 -3.18055e-015
RightArm  47.9585 -5.12868 -54.4479
RightForeArm  7.34085 -5.67863 8.42607
RightHand  1.71844 -0.202571 -12.5417
LeftUpLeg  13.4316 5.15649 44.9775
LeftLeg  -32.2437 -29.812 11.217
LeftFoot  -10.9581 9.27675 -45.2122
LeftToes  9.54166e-015 -1.91609e-011 -2.3878e-011
173
root  1.45597 30.6225 -1.74391 -137.439 -17.2216 174.961
RightUpLeg  -72.1983 6.2925 -20.9288
RightLeg  -73.6506 -17.9652 8.83256
RightFoot  34.4945 -7.09111 -4.01822
RightToes  -1.27222e-014 -6.36111e-015 6.36111e-015
Spine  1.46258 -11.4104 5.48163
Spine1  -20.4324 -13.9423 40.5275
HEad  -10.1958 -12.1735 -33.315
LeftShoulder1  6.36111e-015 -1.33558e-015 6.49777e-015
LeftArm  -8.13076 -17.2354 8.05061
LeftForeArm  10.1791 2.45539 -3.4468
LeftHand  0.871402 4.687 -7.43657
RightShoulder  -4.77083e-015 -6.36111e-015 -3.18055e-015
RightArm  34.6237 1.80031 -47.0808
RightForeArm  7.66496 -1.05505 7.32976
RightHand  2.39095 -0.845976 -15.9163
LeftUpLeg  12.1172 10.6285 52.5485
LeftLeg  -43.9803 -23.4805 8.92745
LeftFoot  -1.37872 10.2948 -35.3562
LeftToes  9.54166e-015 -1.91609e-011 -2.3878e-011
174
root  2.82935 30.346 -3.10733 -135.057 -24.6847 176.943
RightUpLeg  -73.8595 3.98588 -15.4735
RightLeg  -66.0009 -21.4833 10.6309
RightFoot  30.2077 -6.25447 -3.44268
RightToes  -1.27222e-014 -6.36111e-015 6.36111e-015
Spine  3.4314 -14.5669 4.14602
Spine1  -23.2093 -16.8974 35.7313
HEad  -14.2127 -14.2684 -28.4326
LeftShoulder1  6.36111e-015 -1.33558e-015 6.49777e-015
LeftArm  -18.4438 -21.8923 7.32186
LeftForeArm  7.10372 4.00242 -1.9228
LeftHand  1.12776 5.12962 -6.54314
RightShoulder  -4.77083e-015 -6.36111e-015 -3.18055e-015
RightArm  26.1576 13.1379 -42.8171
RightForeArm  4.60652 -0.194258 3.10156
RightHand  3.07808 -1.56345 -18.8981
LeftUpLeg  11.2639 9.86691 58.0694
LeftLeg  -40.5554 -12.4228 0.0366017
LeftFoot  3.27972 7.24541 -21.9283
LeftToes  9.54166e-015 -1.91609e-011 -2.3878e-011
175
root  3.62497 29.4288 -4.50373 -136.601 -30.372 -179.874
RightUpLeg  -74.3232 2.95546 -10.5627
RightLeg  -54.3327 -23.2535 7.75222
RightFoot  22.8327 -5.90529 -0.944294
RightToes  -1.27222e-014 -6.36111e-015 6.36111e-015
Spine  3.12584 -17.7864 3.10824
Spine1  -24.017 -20.3168 33.109
HEad  -18.3394 -15.2934 -22.6313
LeftShoulder1  6.36111e-015 -1.33558e-015 6.49777e-015
LeftArm  -25.632 -25.838 8.7038
LeftForeArm  3.21436 6.00873 -0.330182
LeftHand  1.00647 4.62189 -6.19573
RightShoulder  -4.77083e-015 -6.36111e-015 -3.18055e-015
RightArm  23.5579 25.93 -43.253
RightForeArm  0.330305 -2.72367 -1.23502
RightHand  3.62847 -1.94057 -21.5193
LeftUpLeg  15.009 4.41668 62.7316
LeftLeg  -32.6065 -3.98608 -0.539629
LeftFoot  1.43549 6.93378 -22.158
LeftToes  9.54166e-015 -1.91609e-011 -2.3878e-011
